<svg id="Layer_1" data-name="Layer 1" xmlns="http://www.w3.org/2000/svg" viewBox="0 0 500 500">
  <title>Logo-Color</title>
  <path d="M118.24,242.89l18.61,30.7a.79.79,0,0,1-.68,1.2H119.53a.79.79,0,0,1-.68-.38L91.8,230.32a.79.79,0,0,1,.68-1.21l13,.1a15.81,15.81,0,0,0,11.24-4.44,14.07,14.07,0,0,0,4.83-10.82,13.78,13.78,0,0,0-4.83-10.6,15.81,15.81,0,0,0-11.24-4.44H73.48a.79.79,0,0,1-.54-.22l-1.51-1.42a.79.79,0,0,1-.13-.16l-7.54-12.26a.79.79,0,0,1,.67-1.21h41a32,32,0,0,1,22.72,8.89c6.28,6,9.43,13.1,9.43,21.42a27.68,27.68,0,0,1-5.68,17.21,30.91,30.91,0,0,1-13.27,10.59A.79.79,0,0,0,118.24,242.89Z" style="fill: #295aa6;stroke: #2a5ba6;stroke-miterlimit: 10;stroke-width: 3px"/>
  <path d="M153.8,269.48V225a5.32,5.32,0,0,1,5.32-5.32h0a5.32,5.32,0,0,1,5.32,5.32v44.52a5.32,5.32,0,0,1-5.32,5.32h0A5.32,5.32,0,0,1,153.8,269.48Z" style="fill: #295aa6;stroke: #2a5ba6;stroke-miterlimit: 10;stroke-width: 4px"/>
  <path d="M192,248a3.62,3.62,0,0,0-3.59,4.21c1.89,10.52,10.2,14.94,19.66,14.94a43.62,43.62,0,0,0,12.57-1.59,3.65,3.65,0,0,1,4.59,2.58l0,.15a3.63,3.63,0,0,1-2.44,4.36,54.38,54.38,0,0,1-16.21,2.23c-18,0-28.76-11.17-28.76-27.8s10.39-29.74,27.43-29.74c19.09,0,24.17,15.84,24.17,26,0,.42,0,.81,0,1.19a3.64,3.64,0,0,1-3.63,3.48Zm23.25-7.18a3.62,3.62,0,0,0,3.59-4.24c-1.09-5.78-4.87-12.05-14.39-12.05-8.35,0-13.06,5.63-15.14,11.4a3.64,3.64,0,0,0,3.42,4.89Z" style="fill: #295aa6;stroke: #2a5ba6;stroke-miterlimit: 10;stroke-width: 4px"/>
  <path d="M255.43,207.7v7.12a3.82,3.82,0,0,0,3.82,3.82h7.59a3.82,3.82,0,0,1,3.82,3.82h0a3.82,3.82,0,0,1-3.82,3.82h-9.41a2,2,0,0,0-2,2V256c0,6.84,2.05,10.71,8,10.71.84,0,1.62,0,2.33-.09a3.81,3.81,0,0,1,4.1,3.56l0,.24a3.82,3.82,0,0,1-3.16,4,35.55,35.55,0,0,1-6.07.48c-5,0-8.94-1.48-11.48-4.22-3-3-4.11-7.86-4.11-14.36V230.09a3.82,3.82,0,0,0-3.82-3.82h-1.43a3.82,3.82,0,0,1-3.82-3.82h0a3.82,3.82,0,0,1,3.82-3.82h1.43a3.82,3.82,0,0,0,3.82-3.82V208.4a3.82,3.82,0,0,1,2.88-3.7l2.76-.7A3.82,3.82,0,0,1,255.43,207.7Z" style="fill: #295aa6;stroke: #2a5ba6;stroke-miterlimit: 10;stroke-width: 4px"/>
  <path d="M291.8,248a3.62,3.62,0,0,0-3.59,4.21c1.89,10.52,10.2,14.94,19.66,14.94a43.62,43.62,0,0,0,12.57-1.59,3.65,3.65,0,0,1,4.59,2.58l0,.16a3.63,3.63,0,0,1-2.44,4.36,54.37,54.37,0,0,1-16.21,2.23c-18,0-28.76-11.17-28.76-27.8s10.39-29.74,27.43-29.74c19.09,0,24.17,15.84,24.17,26,0,.42,0,.81,0,1.19A3.64,3.64,0,0,1,325.6,248ZM315,240.86a3.62,3.62,0,0,0,3.59-4.24c-1.09-5.78-4.87-12.05-14.39-12.05-8.35,0-13.06,5.63-15.14,11.4a3.64,3.64,0,0,0,3.42,4.89Z" style="fill: #295aa6;stroke: #2a5ba6;stroke-miterlimit: 10;stroke-width: 4px"/>
  <path d="M383.33,268.44a3.87,3.87,0,0,1-2.63,4.61,46.54,46.54,0,0,1-13.37,1.88c-17.64,0-29.12-11.28-29.12-28.14s12.33-29.28,31.42-29.28a41.24,41.24,0,0,1,11,1.49,3.88,3.88,0,0,1,2.65,4.89l-.07.21a3.86,3.86,0,0,1-4.79,2.56,30.33,30.33,0,0,0-8.79-1.17c-13.41,0-20.66,9.34-20.66,20.85,0,12.76,8.7,20.62,20.3,20.62a31,31,0,0,0,9.21-1.32,3.86,3.86,0,0,1,4.86,2.81Z" style="fill: #295aa6;stroke: #2a5ba6;stroke-miterlimit: 10;stroke-width: 4px"/>
  <circle cx="159.11" cy="204.61" r="8.67" style="fill: #295aa6"/>
  <path d="M425.94,218.39a22.89,22.89,0,0,0-10.88,2.85,19.22,19.22,0,0,0-7.61,7.06h-.24V214.72a6.28,6.28,0,0,1-4.28,1.7h-2a6.28,6.28,0,0,1-4.31-1.72v54.78a5.32,5.32,0,0,0,5.32,5.32h0a5.32,5.32,0,0,0,5.32-5.32v-28a11.51,11.51,0,0,1,.72-4.79,15.19,15.19,0,0,1,14.26-10c10,0,13.53,7.52,13.53,16.41v26.36a5.32,5.32,0,1,0,10.63,0V242C446.36,222.95,433.79,218.39,425.94,218.39Z" style="fill: #295aa6;stroke: #2a5ba6;stroke-miterlimit: 10;stroke-width: 4px"/>
  <text transform="translate(70.36 316.02) scale(1.08 1)" style="font-size: 46.727088928222656px;fill: #606161;font-family: SegoeUI-Semilight, Segoe UI;letter-spacing: 0.41700160716754714em">SO<tspan x="98.38" y="0" style="letter-spacing: 0.4028301510779454em">L</tspan><tspan x="138.9" y="0">UTION</tspan></text>
  <circle cx="401.9" cy="203.8" r="6.85" style="fill: #4671b8"/>
  <g>
    <circle cx="401.9" cy="188.01" r="6.85" style="fill: #fbae1c"/>
    <path d="M396.19,188.48c-.58-.31,2.05-7.28,7.05-6.36a.25.25,0,0,1,.16.37,3.52,3.52,0,0,1-2.43,1.73,4.3,4.3,0,0,0-4,3.34C396.65,188.48,396.19,188.48,396.19,188.48Z" style="fill: #fff2db"/>
    <path d="M400.79,193.89c.94.4,7.16-1.54,6.73-5.24a.18.18,0,0,0-.25-.15,2.69,2.69,0,0,0-1.61,1.64,3.25,3.25,0,0,1-3,2.62A3,3,0,0,0,400.79,193.89Z" style="fill: #fff2db"/>
  </g>
</svg>
